Patient4_TMGait_0pt4_03_left_43_GRF.mot
version=1
nRows=38
nColumns=19
inDegrees=no
endheader
time	F1x	F1y	F1z	M1x	M1y	M1z	F2x	F2y	F2z	M2x	M2y	M2z	EC1x	EC1y	EC1z	EC2x	EC2y	EC2z
56.99	0.97963	-7.2542	-0.28541	2.4408	-1.5464	-5.8253	-34.2112	733.269	-68.5474	284.2617	84.4006	872.6023	-0.0592	0.0182	-0.0073	-0.0462	0.0165	0.9585
57.0031	0.57188	-4.5448	-0.089466	1.5173	-1.2098	-3.5642	-28.5789	728.6158	-64.4483	282.5245	80.316	864.9826	-0.0592	0.0182	-0.0073	-0.0462	0.0165	0.9585
57.0163	0.23605	-2.2504	0.060807	0.73439	-0.89929	-1.6281	-22.9675	726.0292	-60.8094	281.5553	76.2472	858.9293	-0.0592	0.0182	-0.0073	-0.0462	0.0165	0.9585
57.0294	-0.013353	-0.48653	0.15322	0.13435	-0.6391	-0.12115	-17.6433	726.3665	-57.8506	281.6907	72.4173	855.5294	-0.0592	0.0182	-0.0073	-0.0462	0.0165	0.9585
57.0426	-0.18731	0.75692	0.20012	-0.28443	-0.44487	0.96556	-12.7277	729.9699	-55.6496	283.0692	68.9827	855.3419	-0.0592	0.0182	-0.0073	-0.0462	0.0165	0.9585
57.0557	-0.30206	1.5493	0.21177	-0.54718	-0.31153	1.6845	-8.2564	736.5865	-54.1669	285.5975	66.0122	858.2501	-0.0592	0.0182	-0.0073	-0.0462	0.0165	0.9585
57.0689	-0.37975	1.9729	0.20648	-0.68352	-0.23587	2.0914	-4.1905	745.4626	-53.3296	288.9791	63.5338	863.551	-0.0592	0.0182	-0.0073	-0.0462	0.0165	0.9585
57.082	-0.43929	2.092	0.19516	-0.71624	-0.20805	2.2165	-0.49334	755.4895	-53.0211	292.7762	61.5232	870.1148	-0.0592	0.0182	-0.0073	-0.0462	0.0165	0.9585
57.0951	-0.50297	1.9527	0.18922	-0.65938	-0.22541	2.0693	2.8616	765.3497	-53.131	296.4741	59.9425	876.5477	-0.0592	0.0182	-0.0073	-0.0462	0.0165	0.9585
57.1083	-0.58405	1.5606	0.19397	-0.51415	-0.28207	1.6191	5.9172	773.7403	-53.5267	299.5635	58.7062	881.459	-0.0592	0.0182	-0.0073	-0.0462	0.0165	0.9585
57.1214	-0.68127	0.88621	0.20523	-0.27139	-0.36402	0.80651	8.721	779.5248	-54.0765	301.6057	57.7047	883.6234	-0.0592	0.0182	-0.0073	-0.0462	0.0165	0.9585
57.1346	-0.78663	-0.10158	0.221	0.079277	-0.45714	-0.41421	11.2976	781.93	-54.6388	302.3096	56.8063	882.201	-0.0592	0.0182	-0.0073	-0.0462	0.0165	0.9585
57.1477	-0.86379	-1.4316	0.23347	0.54415	-0.53636	-2.0789	13.6819	780.6643	-55.1094	301.5722	55.9043	876.871	-0.0592	0.0182	-0.0073	-0.0462	0.0165	0.9585
57.1609	-0.87361	-3.0796	0.23115	1.1117	-0.57034	-4.151	15.9084	775.9112	-55.4406	299.476	54.9446	867.8333	-0.0592	0.0182	-0.0073	-0.0462	0.0165	0.9585
57.174	-0.74309	-4.9072	0.19315	1.733	-0.50807	-6.4601	17.9982	768.3072	-55.6323	296.279	53.9267	855.7883	-0.0592	0.0182	-0.0073	-0.0462	0.0165	0.9585
57.1871	-0.38281	-6.6199	0.089236	2.3067	-0.27798	-8.6321	19.9813	758.8339	-55.7237	292.3723	52.8865	841.815	-0.0592	0.0182	-0.0073	-0.0462	0.0165	0.9585
57.2003	0.32301	-7.7009	-0.12398	2.6584	0.21666	-10.0172	21.8978	748.6409	-55.7765	288.2107	51.8758	827.1767	-0.0592	0.0182	-0.0073	-0.0462	0.0165	0.9585
57.2134	1.4923	-7.3349	-0.48985	2.5114	1.0752	-9.5696	23.7829	738.8234	-55.8573	284.2276	50.9538	813.0815	-0.0592	0.0182	-0.0073	-0.0462	0.0165	0.9585
57.2266	3.2267	-4.3904	-1.0462	1.4785	2.379	-5.8278	25.6386	730.2097	-56.0205	280.7511	50.1766	800.4514	-0.0592	0.0182	-0.0073	-0.0462	0.0165	0.9585
57.2397	5.562	2.5524	-1.8156	-0.9283	4.1635	3.0408	27.4502	723.1897	-56.3061	277.9325	49.5927	789.7359	-0.0592	0.0182	-0.0073	-0.0462	0.0165	0.9585
57.2529	8.4012	15.1163	-2.7766	-5.2635	6.3632	19.126	29.16	717.5605	-56.6959	275.6888	49.2093	780.7621	-0.0592	0.0182	-0.0073	-0.0462	0.0165	0.9585
57.266	11.4478	34.8325	-3.8429	-12.0514	8.7601	44.401	30.6409	712.4607	-57.1151	273.6798	48.9913	772.6743	-0.0592	0.0182	-0.0073	-0.0462	0.0165	0.9585
57.2791	14.0724	62.6626	-4.8184	-21.6202	10.8866	80.1233	31.7397	706.4784	-57.4184	271.3496	48.8371	764.0301	-0.0592	0.0182	-0.0073	-0.0462	0.0165	0.9585
57.2923	15.2314	98.2901	-5.366	-33.8567	11.9514	125.8968	32.2701	697.8469	-57.4071	268.0091	48.6016	753.0076	-0.0592	0.0182	-0.0073	-0.0462	0.0165	0.9585
57.3054	13.6142	139.3356	-4.9826	-47.9304	10.8721	178.6819	32.0384	684.7961	-56.8392	262.979	48.0951	737.7719	-0.0592	0.0182	-0.0073	-0.0462	0.0165	0.9585
57.3186	8.8692	181.4291	-3.0231	-62.2991	6.6998	232.8687	30.9641	666.0964	-55.5031	255.7913	47.1248	717.0284	-0.0592	0.0182	-0.0073	-0.0462	0.0165	0.9585
57.3317	2.439	219.9885	1.0628	-75.3511	-0.67473	282.4605	29.1331	641.4808	-53.3062	246.3514	45.5632	690.4428	-0.0592	0.0182	-0.0073	-0.0462	0.0165	0.9585
57.3449	-4.1093	252.9969	6.5541	-86.4253	-9.8232	324.5891	26.7947	611.7489	-50.3621	234.9673	43.4348	658.7479	-0.0592	0.0182	-0.0073	-0.0462	0.0165	0.9585
57.358	-9.9067	281.5829	12.8452	-95.9405	-19.6426	360.5353	24.3455	578.3615	-46.9623	222.1923	40.8901	623.3336	-0.0592	0.0182	-0.0073	-0.0462	0.0165	0.9585
57.3711	-14.6074	308.225	19.1081	-104.7993	-29.019	393.4378	22.1774	542.8507	-43.3742	208.6069	38.0536	585.6594	-0.0592	0.0182	-0.0073	-0.0462	0.0165	0.9585
57.3843	-18.1862	335.1041	24.9393	-113.7848	-37.4047	426.1431	20.546	506.3427	-39.7381	194.6447	34.9699	546.8003	-0.0592	0.0182	-0.0073	-0.0462	0.0165	0.9585
57.3974	-20.6899	363.3882	29.8448	-123.331	-44.2438	460.1261	19.5235	469.4613	-36.0494	180.5456	31.5991	507.375	-0.0592	0.0182	-0.0073	-0.0462	0.0165	0.9585
57.4106	-22.189	393.112	33.7141	-133.4566	-49.4045	495.4918	19.0404	432.3663	-32.2488	166.3745	27.8957	467.5584	-0.0592	0.0182	-0.0073	-0.0462	0.0165	0.9585
57.4237	-22.6953	423.638	36.4722	-143.9414	-52.8414	531.4538	18.8952	394.9865	-28.3075	152.1011	23.8952	427.3142	-0.0592	0.0182	-0.0073	-0.0462	0.0165	0.9585
57.4369	-22.3211	454.2107	38.4408	-154.4927	-54.9728	567.1599	18.835	357.2337	-24.3071	137.6794	19.7643	386.5984	-0.0592	0.0182	-0.0073	-0.0462	0.0165	0.9585
57.45	-21.1373	484.2091	39.8928	-164.8705	-56.1907	601.8736	18.5868	319.1621	-20.396	123.1132	15.7489	345.5105	-0.0592	0.0182	-0.0073	-0.0462	0.0165	0.9585
57.4631	-19.3435	513.395	41.2828	-174.9598	-57.0987	635.3705	17.882	281.0483	-16.7405	108.4953	12.1182	304.3875	-0.0592	0.0182	-0.0073	-0.0462	0.0165	0.9585
57.4763	-17.246	541.9161	42.8478	-184.7975	-58.1032	667.8636	16.5372	243.4161	-13.4577	94.0221	9.0714	263.8093	-0.0592	0.0182	-0.0073	-0.0462	0.0165	0.9585
